<svg width="943" height="262" viewBox="0 0 943 262" fill="none" xmlns="http://www.w3.org/2000/svg">
<path fill-rule="evenodd" clip-rule="evenodd" d="M154.078 31.0369L153 30.4144C134.436 19.6964 111.564 19.6964 93.0002 30.4144L50.8906 54.7264C32.3265 65.4444 20.8906 85.252 20.8906 106.688V155.312C20.8906 176.748 32.3265 196.556 50.8906 207.273L93.0002 231.585C111.564 242.303 134.436 242.303 153 231.585L195.11 207.273C213.674 196.556 225.11 176.748 225.11 155.312V106.688C225.11 90.9131 218.916 76.0202 208.247 64.9826C213.476 60.5156 217.314 54.4672 219.02 47.5777C235.447 62.5597 245.11 83.9359 245.11 106.688V155.312C245.11 183.893 229.862 210.303 205.11 224.594L163 248.906C138.248 263.197 107.752 263.197 83.0002 248.906L40.8906 224.594C16.1385 210.303 0.890625 183.893 0.890625 155.312V106.688C0.890625 78.1067 16.1385 51.6965 40.8906 37.4059L83.0002 13.0939C107.752 -1.19668 138.248 -1.19668 163 13.0939L164.691 14.0703C159.591 18.4484 155.823 24.3344 154.078 31.0369Z" fill="url(#paint0_angular_307_2)"/>
<path d="M64 131.5C64 99.1913 90.1913 73 122.5 73C154.809 73 181 99.1913 181 131.5C181 163.809 154.809 190 122.5 190C90.1913 190 64 163.809 64 131.5Z" fill="url(#paint1_linear_307_2)"/>
<path d="M209 38.5C209 26.0736 198.926 16 186.5 16C174.074 16 164 26.0736 164 38.5C164 50.9264 174.074 61 186.5 61C198.926 61 209 50.9264 209 38.5Z" fill="white"/>
<path d="M370.149 111.42V170.38C370.149 174.487 371.103 177.493 373.009 179.4C375.063 181.16 378.436 182.04 383.129 182.04H397.429V208H378.069C352.109 208 339.129 195.387 339.129 170.16V111.42H324.609V86.12H339.129V55.98H370.149V86.12H397.429V111.42H370.149ZM411.662 146.62C411.662 134.3 414.082 123.373 418.922 113.84C423.909 104.307 430.582 96.9733 438.942 91.84C447.449 86.7067 456.909 84.14 467.322 84.14C476.416 84.14 484.336 85.9733 491.082 89.64C497.976 93.3067 503.476 97.9267 507.582 103.5V86.12H538.602V208H507.582V190.18C503.622 195.9 498.122 200.667 491.082 204.48C484.189 208.147 476.196 209.98 467.102 209.98C456.836 209.98 447.449 207.34 438.942 202.06C430.582 196.78 423.909 189.373 418.922 179.84C414.082 170.16 411.662 159.087 411.662 146.62ZM507.582 147.06C507.582 139.58 506.116 133.2 503.182 127.92C500.249 122.493 496.289 118.387 491.302 115.6C486.316 112.667 480.962 111.2 475.242 111.2C469.522 111.2 464.242 112.593 459.402 115.38C454.562 118.167 450.602 122.273 447.522 127.7C444.589 132.98 443.122 139.287 443.122 146.62C443.122 153.953 444.589 160.407 447.522 165.98C450.602 171.407 454.562 175.587 459.402 178.52C464.389 181.453 469.669 182.92 475.242 182.92C480.962 182.92 486.316 181.527 491.302 178.74C496.289 175.807 500.249 171.7 503.182 166.42C506.116 160.993 507.582 154.54 507.582 147.06ZM584.304 71.6C578.877 71.6 574.331 69.9133 570.664 66.54C567.144 63.02 565.384 58.6933 565.384 53.56C565.384 48.4267 567.144 44.1733 570.664 40.8C574.331 37.28 578.877 35.52 584.304 35.52C589.731 35.52 594.204 37.28 597.724 40.8C601.391 44.1733 603.224 48.4267 603.224 53.56C603.224 58.6933 601.391 63.02 597.724 66.54C594.204 69.9133 589.731 71.6 584.304 71.6ZM599.484 86.12V208H568.684V86.12H599.484ZM660.714 45.2V208H629.914V45.2H660.714ZM806.205 86.12V208H775.185V192.6C771.225 197.88 766.018 202.06 759.565 205.14C753.258 208.073 746.365 209.54 738.885 209.54C729.352 209.54 720.918 207.56 713.585 203.6C706.252 199.493 700.458 193.553 696.205 185.78C692.098 177.86 690.045 168.473 690.045 157.62V86.12H720.845V153.22C720.845 162.9 723.265 170.38 728.105 175.66C732.945 180.793 739.545 183.36 747.905 183.36C756.412 183.36 763.085 180.793 767.925 175.66C772.765 170.38 775.185 162.9 775.185 153.22V86.12H806.205ZM883.234 209.98C873.261 209.98 864.314 208.22 856.394 204.7C848.474 201.033 842.167 196.12 837.474 189.96C832.927 183.8 830.434 176.98 829.994 169.5H861.014C861.601 174.193 863.874 178.08 867.834 181.16C871.941 184.24 877.001 185.78 883.014 185.78C888.881 185.78 893.427 184.607 896.654 182.26C900.027 179.913 901.714 176.907 901.714 173.24C901.714 169.28 899.661 166.347 895.554 164.44C891.594 162.387 885.214 160.187 876.414 157.84C867.321 155.64 859.841 153.367 853.974 151.02C848.254 148.673 843.267 145.08 839.014 140.24C834.907 135.4 832.854 128.873 832.854 120.66C832.854 113.913 834.761 107.753 838.574 102.18C842.534 96.6067 848.107 92.2067 855.294 88.98C862.627 85.7533 871.207 84.14 881.034 84.14C895.554 84.14 907.141 87.8067 915.794 95.14C924.447 102.327 929.214 112.08 930.094 124.4H900.614C900.174 119.56 898.121 115.747 894.454 112.96C890.934 110.027 886.167 108.56 880.154 108.56C874.581 108.56 870.254 109.587 867.174 111.64C864.241 113.693 862.774 116.553 862.774 120.22C862.774 124.327 864.827 127.48 868.934 129.68C873.041 131.733 879.421 133.86 888.074 136.06C896.874 138.26 904.134 140.533 909.854 142.88C915.574 145.227 920.487 148.893 924.594 153.88C928.847 158.72 931.047 165.173 931.194 173.24C931.194 180.28 929.214 186.587 925.254 192.16C921.441 197.733 915.867 202.133 908.534 205.36C901.347 208.44 892.914 209.98 883.234 209.98Z" fill="white"/>
<defs>
<radialGradient id="paint0_angular_307_2" cx="0" cy="0" r="1" gradientUnits="userSpaceOnUse" gradientTransform="translate(123 131) rotate(-59.0352) scale(122.874 120.033)">
<stop stop-color="#C7EEEA"/>
<stop offset="1" stop-color="white"/>
</radialGradient>
<linearGradient id="paint1_linear_307_2" x1="181" y1="131" x2="64" y2="131" gradientUnits="userSpaceOnUse">
<stop stop-color="#CBF0EC"/>
<stop offset="1" stop-color="white"/>
</linearGradient>
</defs>
</svg>
