<?xml version="1.0" encoding="utf-8"?>
<!-- Generator: Adobe Illustrator 23.0.1, SVG Export Plug-In . SVG Version: 6.00 Build 0)  -->
<svg version="1.1" id="Layer_1" xmlns="http://www.w3.org/2000/svg" xmlns:xlink="http://www.w3.org/1999/xlink" x="0px" y="0px"
	 width="201px" height="55px" viewBox="0 0 201 55" style="enable-background:new 0 0 201 55;" xml:space="preserve">
<style type="text/css">
	.st0{fill-rule:evenodd;clip-rule:evenodd;fill:none;}
	.st1{filter:url(#Adobe_OpacityMaskFilter);}
	.st2{fill-rule:evenodd;clip-rule:evenodd;fill:#FFFFFF;}
	.st3{mask:url(#mask-2_1_);fill-rule:evenodd;clip-rule:evenodd;fill:#388DB9;}
	.st4{filter:url(#Adobe_OpacityMaskFilter_1_);}
	.st5{mask:url(#mask-2_2_);fill-rule:evenodd;clip-rule:evenodd;fill:#0A0B09;}
	.st6{fill-rule:evenodd;clip-rule:evenodd;fill:#0A0B09;}
</style>
<g id="Page-1">
	<g transform="translate(-1310.000000, -73.000000)">
		<g>
			<g id="Content" transform="translate(732.000000, 30.000000)">
				<g id="Logos" transform="translate(0.000000, 43.000000)">
					<g id="logo-automatic" transform="translate(578.000000, 0.000000)">
						<rect id="bg" x="0.4" y="0" class="st0" width="199.8" height="55"/>
						<g id="Group-4" transform="translate(0.330381, 19.642857)">
							<defs>
								<filter id="Adobe_OpacityMaskFilter" filterUnits="userSpaceOnUse" x="64.3" y="0.3" width="16.8" height="15.4">
									<feColorMatrix  type="matrix" values="1 0 0 0 0  0 1 0 0 0  0 0 1 0 0  0 0 0 1 0"/>
								</filter>
							</defs>
							<mask maskUnits="userSpaceOnUse" x="64.3" y="0.3" width="16.8" height="15.4" id="mask-2_1_">
								<g class="st1">
									<polygon id="path-1_1_" class="st2" points="0,0.3 81.1,0.3 81.1,15.7 0,15.7 									"/>
								</g>
							</mask>
							<path id="Fill-1" class="st3" d="M78.4,7.8c0-2.8-2-5.2-5.7-5.2C69,2.6,67,5.1,67,7.8v0.3c0,2.8,2,5.3,5.7,5.3
								c3.7,0,5.7-2.5,5.7-5.3V7.8z M72.7,15.7c-5.1,0-8.4-3.7-8.4-7.5V7.8c0-3.9,3.3-7.5,8.4-7.5c5.1,0,8.4,3.6,8.4,7.5v0.5
								C81.1,12.1,77.8,15.7,72.7,15.7L72.7,15.7z"/>
							<defs>
								<filter id="Adobe_OpacityMaskFilter_1_" filterUnits="userSpaceOnUse" x="0" y="0.8" width="17.9" height="14.3">
									<feColorMatrix  type="matrix" values="1 0 0 0 0  0 1 0 0 0  0 0 1 0 0  0 0 0 1 0"/>
								</filter>
							</defs>
							<mask maskUnits="userSpaceOnUse" x="0" y="0.8" width="17.9" height="14.3" id="mask-2_2_">
								<g class="st4">
									<polygon id="path-1_2_" class="st2" points="0,0.3 81.1,0.3 81.1,15.7 0,15.7 									"/>
								</g>
							</mask>
							<path id="Fill-3" class="st5" d="M8.8,3.6l-3.1,6h6.4L8.8,3.6z M15.1,15.2l-1.9-3.5H4.7l-1.8,3.5H0L7.8,0.8H10l7.9,14.3H15.1
								L15.1,15.2z"/>
						</g>
						<path id="Fill-5" class="st6" d="M30.6,35.4c-5.2,0-7.6-2.8-7.6-6.5v-8.4h2.7v8.4c0,2.6,1.8,4.2,5.1,4.2
							c3.4,0,4.8-1.6,4.8-4.2v-8.4h2.7v8.4C38.3,32.4,36,35.4,30.6,35.4"/>
						<polyline id="Fill-6" class="st6" points="53.3,22.7 53.3,34.8 50.6,34.8 50.6,22.7 44.3,22.7 44.3,20.5 59.6,20.5 59.6,22.7 
							53.3,22.7 						"/>
						<polyline id="Fill-7" class="st6" points="105.5,34.8 105.5,23.5 104.8,24.7 98.8,34.8 97.5,34.8 91.5,24.7 90.8,23.5 
							90.8,34.8 88.2,34.8 88.2,20.5 91.9,20.5 97.6,30.3 98.2,31.5 98.9,30.3 104.5,20.5 108.2,20.5 108.2,34.8 105.5,34.8 						
							"/>
						<path id="Fill-8" class="st6" d="M122.5,23.3l-3.1,6h6.4L122.5,23.3z M128.7,34.8l-1.9-3.5h-8.5l-1.8,3.5h-2.9l7.8-14.3h2.2
							l7.9,14.3H128.7L128.7,34.8z"/>
						<polyline id="Fill-9" class="st6" points="142.5,22.7 142.5,34.8 139.8,34.8 139.8,22.7 133.5,22.7 133.5,20.5 148.8,20.5 
							148.8,22.7 142.5,22.7 						"/>
						<polyline id="Fill-10" class="st6" points="162.3,22.7 162.3,34.8 159.6,34.8 159.6,22.7 153.3,22.7 153.3,20.5 168.6,20.5 
							168.6,22.7 162.3,22.7 						"/>
						<path id="Fill-11" class="st6" d="M175.3,34.8v-13c1.1,0,1.5-0.6,1.5-1.4h1.1v14.3H175.3"/>
						<path id="Fill-12" class="st6" d="M199.1,24.5c-1.3-1.2-3.2-2.3-5.8-2.3c-3.8,0-6,2.6-6,5.4v0.3c0,2.7,2.2,5.2,6.2,5.2
							c2.4,0,4.4-1.1,5.6-2.3l1.6,1.7c-1.6,1.5-4.3,2.9-7.4,2.9c-5.4,0-8.8-3.5-8.8-7.4v-0.5c0-3.9,3.6-7.5,8.9-7.5
							c3,0,5.8,1.3,7.3,2.9L199.1,24.5"/>
						<path id="Fill-13" class="st6" d="M74.8,24.9c0.5,0.3,0.6,1,0.3,1.4l-2.5,3.8c-0.3,0.5-1,0.6-1.5,0.3c-0.5-0.3-0.6-1-0.3-1.4
							l2.5-3.8C73.7,24.8,74.3,24.6,74.8,24.9"/>
					</g>
				</g>
			</g>
		</g>
	</g>
</g>
</svg>
