<?xml version="1.0" encoding="utf-8"?>
<!-- Generator: Adobe Illustrator 23.0.1, SVG Export Plug-In . SVG Version: 6.00 Build 0)  -->
<svg version="1.1" id="Layer_1" xmlns="http://www.w3.org/2000/svg" xmlns:xlink="http://www.w3.org/1999/xlink" x="0px" y="0px"
	 width="75px" height="54px" viewBox="0 0 75 54" style="enable-background:new 0 0 75 54;" xml:space="preserve">
<style type="text/css">
	.st0{fill-rule:evenodd;clip-rule:evenodd;fill:none;}
	.st1{fill-rule:evenodd;clip-rule:evenodd;}
	.st2{fill-rule:evenodd;clip-rule:evenodd;fill:#EA2227;}
	.st3{filter:url(#Adobe_OpacityMaskFilter);}
	.st4{fill-rule:evenodd;clip-rule:evenodd;fill:#FFFFFF;}
	.st5{mask:url(#mask-2_1_);fill-rule:evenodd;clip-rule:evenodd;fill:#EA2227;}
</style>
<g id="Page-1">
	<g transform="translate(-1599.000000, -73.000000)">
		<g>
			<g id="Content" transform="translate(732.000000, 30.000000)">
				<g id="Logos" transform="translate(0.000000, 43.000000)">
					<g id="logo-bissell" transform="translate(867.000000, 0.000000)">
						<rect id="bg" x="0.3" y="0" class="st0" width="73.5" height="54"/>
						<path id="Fill-1" class="st1" d="M72.4,20.8c-1.3,0-1.8,0.9-1.8,1.7c0,0.8,0.5,1.7,1.8,1.7c1.1,0,1.8-0.8,1.8-1.7
							C74.1,21.6,73.5,20.8,72.4,20.8L72.4,20.8z M72.4,21.2c0.8,0,1.3,0.5,1.3,1.3c0,0.8-0.5,1.3-1.3,1.3S71,23.2,71,22.5
							C71,21.7,71.6,21.2,72.4,21.2L72.4,21.2z M72,22.7h0.3l0.4,0.7h0.5l-0.5-0.8c0.3,0,0.5-0.2,0.5-0.5c0-0.4-0.2-0.6-0.6-0.6
							h-1.1v1.9H72L72,22.7z M72.4,21.9c0.2,0,0.4,0,0.4,0.2c0,0.2-0.1,0.2-0.3,0.2H72v-0.5H72.4z"/>
						<polygon id="Fill-3" class="st1" points="15.8,24.7 17.9,24.7 17.9,34.2 15.9,34.2 						"/>
						<polygon id="Fill-5" class="st1" points="15.8,20.9 17.9,20.9 17.9,23.9 15.8,23.9 						"/>
						<polygon id="Fill-7" class="st1" points="63.2,20.8 65.3,20.8 65.3,34.1 63.3,34.1 						"/>
						<polygon id="Fill-9" class="st1" points="66.7,20.8 68.8,20.8 68.8,34.1 66.8,34.1 						"/>
						<path id="Fill-11" class="st1" d="M0.1,24.7l11.4,0c1.9,0,2.5,1.5,2.4,2.3c0,0.9-0.4,1.7-0.9,1.9c0.9,0.4,1.6,1.5,1.5,2.5
							c-0.1,2.5-2.6,2.7-3.6,2.7l-10.8,0L0.1,24.7z M10.7,32.7c0.8,0,1.5-0.6,1.5-1.4c0-0.8-0.7-1.5-1.5-1.5l-8.6,0v2.8L10.7,32.7z
							 M10.4,28.5c0.7,0,1.3-0.5,1.3-1.2c0-0.7-0.6-1.2-1.3-1.2l-8.3,0v2.3L10.4,28.5z"/>
						<path id="Fill-13" class="st1" d="M52.2,24.7c-0.8,0-2.5,0.4-2.6,2c0,1.4,0.8,2.1,1.2,2.2c-0.6,0.3-1.2,1.4-1.2,2.3
							c0,1,0.4,2.9,3.6,2.9l8.8,0l0-1.4l-8.5,0c-0.8,0-1.5-0.6-1.5-1.4c0-0.8,0.7-1.5,1.5-1.5l8.1,0l0-1.4l-8.3,0
							c-0.7,0-1.3-0.5-1.3-1.2c0-0.7,0.6-1.2,1.3-1.2l8.7,0v-1.4L52.2,24.7z"/>
						<path id="Fill-15" class="st1" d="M45.9,27.6H48c0-2.3-1.1-3-4-3l-5.7,0c-1.3,0-3.5,0.6-3.5,2.5c0,1.9,0.8,2.7,3.1,2.7l6.8,0
							c0.8,0,1.6,0.5,1.6,1.4s-0.5,1.5-1.9,1.5l-5.4,0c-0.7,0-2.1-0.1-2.1-1.5h-2.1c0,1.2,0.2,3,3.4,3l6.7,0c1.3,0,3.5-0.6,3.5-3
							c0-2.4-2-2.7-3.2-2.7l-6.8,0c-1.1,0-1.5-0.7-1.5-1.2c0-0.5,0.4-1.2,1.5-1.2l5.9,0C45.3,26.1,45.9,26.5,45.9,27.6"/>
						<path id="Fill-17" class="st1" d="M31.2,27.6h2.1c0-2.3-1.1-3-4-3l-5.7,0c-1.3,0-3.5,0.6-3.5,2.5c0,1.9,0.8,2.7,3.1,2.7l6.8,0
							c0.8,0,1.6,0.5,1.6,1.4s-0.5,1.5-1.9,1.5l-5.4,0c-0.7,0-2.1-0.1-2.1-1.5H20c0,1.2,0.2,3,3.4,3l6.7,0c1.3,0,3.5-0.6,3.5-3
							c0-2.4-2-2.7-3.2-2.7l-6.8,0c-1.1,0-1.5-0.7-1.5-1.2c0-0.5,0.4-1.2,1.5-1.2l5.9,0C30.6,26.1,31.2,26.5,31.2,27.6"/>
						<path id="Fill-19" class="st2" d="M62.7,51.1c3.2,0,1.9-2.9,1.3-3.9c-0.9-1.4-5.3-9.2-5.3-9.2L10.9,38c0,0-4.4,7.7-5.3,9.2
							C5,48.2,3.8,51,7,51L62.7,51.1z"/>
						<g id="Group-23" transform="translate(19.765719, 0.981818)">
							<defs>
								<filter id="Adobe_OpacityMaskFilter" filterUnits="userSpaceOnUse" x="0.2" y="0" width="29" height="20">
									<feColorMatrix  type="matrix" values="1 0 0 0 0  0 1 0 0 0  0 0 1 0 0  0 0 0 1 0"/>
								</filter>
							</defs>
							<mask maskUnits="userSpaceOnUse" x="0.2" y="0" width="29" height="20" id="mask-2_1_">
								<g class="st3">
									<polygon id="path-1_1_" class="st4" points="0.2,0 29.2,0 29.2,20 0.2,20 									"/>
								</g>
							</mask>
							<path id="Fill-21" class="st5" d="M0.2,20l29,0c0,0-7.3-13-9-15.9c-1.6-2.7-2.5-4-5.6-4C11.5,0,10.7,1.3,9,4.1
								C7.5,6.8,0.2,20,0.2,20"/>
						</g>
					</g>
				</g>
			</g>
		</g>
	</g>
</g>
</svg>
