<svg width="942" height="262" viewBox="0 0 942 262" fill="none" xmlns="http://www.w3.org/2000/svg">
<path fill-rule="evenodd" clip-rule="evenodd" d="M153.188 31.037L152.11 30.4145C133.546 19.6965 110.674 19.6965 92.1096 30.4145L50 54.7265C31.4359 65.4445 20 85.2521 20 106.688V155.312C20 176.748 31.4359 196.556 50 207.273L92.1096 231.585C110.674 242.303 133.546 242.303 152.11 231.585L194.219 207.273C212.783 196.556 224.219 176.748 224.219 155.312V106.688C224.219 90.9132 218.026 76.0203 207.356 64.9827C212.586 60.5157 216.424 54.4673 218.129 47.5778C234.557 62.5598 244.219 83.936 244.219 106.688V155.312C244.219 183.893 228.971 210.303 204.219 224.594L162.11 248.906C137.357 263.197 106.862 263.197 82.1096 248.906L40 224.594C15.2479 210.303 7.62939e-06 183.893 7.62939e-06 155.312V106.688C7.62939e-06 78.1068 15.2479 51.6966 40 37.406L82.1096 13.094C106.862 -1.19662 137.357 -1.19662 162.11 13.094L163.801 14.0704C158.701 18.4485 154.932 24.3345 153.188 31.037Z" fill="url(#paint0_angular)"/>
<path d="M63.1096 131.5C63.1096 99.1913 89.301 73 121.61 73C153.918 73 180.11 99.1913 180.11 131.5C180.11 163.809 153.918 190 121.61 190C89.301 190 63.1096 163.809 63.1096 131.5Z" fill="url(#paint1_linear)"/>
<rect x="163.11" y="16" width="45" height="45" rx="22.5" fill="#0DCBFD"/>
<path d="M369.259 111.42V170.38C369.259 174.487 370.212 177.493 372.119 179.4C374.172 181.16 377.545 182.04 382.239 182.04H396.539V208H377.179C351.219 208 338.239 195.387 338.239 170.16V111.42H323.719V86.12H338.239V55.98H369.259V86.12H396.539V111.42H369.259ZM410.772 146.62C410.772 134.3 413.192 123.373 418.032 113.84C423.018 104.307 429.692 96.9733 438.052 91.84C446.558 86.7067 456.018 84.14 466.432 84.14C475.525 84.14 483.445 85.9733 490.192 89.64C497.085 93.3067 502.585 97.9267 506.692 103.5V86.12H537.712V208H506.692V190.18C502.732 195.9 497.232 200.667 490.192 204.48C483.298 208.147 475.305 209.98 466.212 209.98C455.945 209.98 446.558 207.34 438.052 202.06C429.692 196.78 423.018 189.373 418.032 179.84C413.192 170.16 410.772 159.087 410.772 146.62ZM506.692 147.06C506.692 139.58 505.225 133.2 502.292 127.92C499.358 122.493 495.398 118.387 490.412 115.6C485.425 112.667 480.072 111.2 474.352 111.2C468.632 111.2 463.352 112.593 458.512 115.38C453.672 118.167 449.712 122.273 446.632 127.7C443.698 132.98 442.232 139.287 442.232 146.62C442.232 153.953 443.698 160.407 446.632 165.98C449.712 171.407 453.672 175.587 458.512 178.52C463.498 181.453 468.778 182.92 474.352 182.92C480.072 182.92 485.425 181.527 490.412 178.74C495.398 175.807 499.358 171.7 502.292 166.42C505.225 160.993 506.692 154.54 506.692 147.06ZM583.413 71.6C577.987 71.6 573.44 69.9133 569.773 66.54C566.253 63.02 564.493 58.6933 564.493 53.56C564.493 48.4267 566.253 44.1733 569.773 40.8C573.44 37.28 577.987 35.52 583.413 35.52C588.84 35.52 593.313 37.28 596.833 40.8C600.5 44.1733 602.333 48.4267 602.333 53.56C602.333 58.6933 600.5 63.02 596.833 66.54C593.313 69.9133 588.84 71.6 583.413 71.6ZM598.593 86.12V208H567.793V86.12H598.593ZM659.824 45.2V208H629.024V45.2H659.824ZM805.314 86.12V208H774.294V192.6C770.334 197.88 765.128 202.06 758.674 205.14C752.368 208.073 745.474 209.54 737.994 209.54C728.461 209.54 720.028 207.56 712.694 203.6C705.361 199.493 699.568 193.553 695.314 185.78C691.208 177.86 689.154 168.473 689.154 157.62V86.12H719.954V153.22C719.954 162.9 722.374 170.38 727.214 175.66C732.054 180.793 738.654 183.36 747.014 183.36C755.521 183.36 762.194 180.793 767.034 175.66C771.874 170.38 774.294 162.9 774.294 153.22V86.12H805.314ZM882.343 209.98C872.37 209.98 863.423 208.22 855.503 204.7C847.583 201.033 841.277 196.12 836.583 189.96C832.037 183.8 829.543 176.98 829.103 169.5H860.123C860.71 174.193 862.983 178.08 866.943 181.16C871.05 184.24 876.11 185.78 882.123 185.78C887.99 185.78 892.537 184.607 895.763 182.26C899.137 179.913 900.823 176.907 900.823 173.24C900.823 169.28 898.77 166.347 894.663 164.44C890.703 162.387 884.323 160.187 875.523 157.84C866.43 155.64 858.95 153.367 853.083 151.02C847.363 148.673 842.377 145.08 838.123 140.24C834.017 135.4 831.963 128.873 831.963 120.66C831.963 113.913 833.87 107.753 837.683 102.18C841.643 96.6067 847.217 92.2067 854.403 88.98C861.737 85.7533 870.317 84.14 880.143 84.14C894.663 84.14 906.25 87.8067 914.903 95.14C923.557 102.327 928.323 112.08 929.203 124.4H899.723C899.283 119.56 897.23 115.747 893.563 112.96C890.043 110.027 885.277 108.56 879.263 108.56C873.69 108.56 869.363 109.587 866.283 111.64C863.35 113.693 861.883 116.553 861.883 120.22C861.883 124.327 863.937 127.48 868.043 129.68C872.15 131.733 878.53 133.86 887.183 136.06C895.983 138.26 903.243 140.533 908.963 142.88C914.683 145.227 919.597 148.893 923.703 153.88C927.957 158.72 930.157 165.173 930.303 173.24C930.303 180.28 928.323 186.587 924.363 192.16C920.55 197.733 914.977 202.133 907.643 205.36C900.457 208.44 892.023 209.98 882.343 209.98Z" fill="white"/>
<defs>
<radialGradient id="paint0_angular" cx="0" cy="0" r="1" gradientUnits="userSpaceOnUse" gradientTransform="translate(122.11 131) rotate(-59.0352) scale(122.874 120.033)">
<stop stop-color="#01FEE6"/>
<stop offset="1" stop-color="#0EC8FE"/>
</radialGradient>
<linearGradient id="paint1_linear" x1="180.11" y1="131" x2="63.1096" y2="131" gradientUnits="userSpaceOnUse">
<stop stop-color="#01FEE6"/>
<stop offset="1" stop-color="#0DCBFD"/>
</linearGradient>
</defs>
</svg>
