<?xml version="1.0" encoding="utf-8"?>
<!-- Generator: Adobe Illustrator 23.0.1, SVG Export Plug-In . SVG Version: 6.00 Build 0)  -->
<svg version="1.1" id="Layer_1" xmlns="http://www.w3.org/2000/svg" xmlns:xlink="http://www.w3.org/1999/xlink" x="0px" y="0px"
	 width="106px" height="55px" viewBox="0 0 106 55" style="enable-background:new 0 0 106 55;" xml:space="preserve">
<style type="text/css">
	.st0{fill-rule:evenodd;clip-rule:evenodd;fill:none;}
	.st1{fill:#3D195B;}
</style>
<g id="Page-1">
	<g transform="translate(-1762.000000, -73.000000)">
		<g>
			<g id="Content" transform="translate(732.000000, 30.000000)">
				<g id="Logos" transform="translate(0.000000, 43.000000)">
					<g id="logo-coty" transform="translate(1030.000000, 0.000000)">
						<rect id="bg" x="0.8" y="0" class="st0" width="104.8" height="55"/>
						<path id="Shape" class="st1" d="M10.1,33.4c-3.4,0-5.6-2.4-5.6-5.9s2.2-5.9,5.6-5.9c2.4,0,4.1,1.1,5.1,2.7l2.9-2.5
							c-1.6-2.3-4.1-4-8-4c-6.2,0-9.9,4.5-9.9,9.7s3.7,9.7,9.9,9.7c3.9,0,6.4-1.7,8-4l-2.9-2.5C14.2,32.3,12.5,33.4,10.1,33.4
							L10.1,33.4z M38.5,37.2c5.8,0,9.9-4,9.9-9.7s-4.1-9.7-9.9-9.7s-9.9,4-9.9,9.7C28.6,33.2,32.7,37.2,38.5,37.2L38.5,37.2z
							 M38.5,33.4c-3.3,0-5.7-2.5-5.7-6c0-3.5,2.3-6,5.7-6c3.4,0,5.7,2.5,5.7,6C44.2,31,41.9,33.4,38.5,33.4L38.5,33.4z M64.5,36.9
							h4.5v-15h6.5L75.1,18H58.4L58,21.9h6.4V36.9z M98.1,32.3c0-1.7,0.4-2.5,2.2-4.4l1.8-2c2.1-2.4,3-4.3,3-7.4v-0.4h-4.4v0.3
							c0,2.7-0.5,3.7-2.2,5.6l-1.3,1.4c-0.7,0.8-1.3,1.6-1.3,1.6s-0.5-0.8-1.3-1.6L93.4,24c-1.7-1.9-2.2-2.9-2.2-5.6v-0.3h-4.5v0.4
							c0,3.1,0.9,5.1,3,7.4l1.8,2c1.7,1.9,2.2,2.7,2.2,4.4v4.5h4.4L98.1,32.3L98.1,32.3z"/>
					</g>
				</g>
			</g>
		</g>
	</g>
</g>
</svg>
